<?xml version="1.0" standalone="no"?>
<!DOCTYPE svg PUBLIC "-//W3C//DTD SVG 20010904//EN"
 "http://www.w3.org/TR/2001/REC-SVG-20010904/DTD/svg10.dtd">
<svg version="1.0" xmlns="http://www.w3.org/2000/svg"
 width="283.000000pt" height="283.000000pt" viewBox="0 0 283.000000 283.000000"
 preserveAspectRatio="xMidYMid meet">
<metadata>
Created by potrace 1.16, written by Peter Selinger 2001-2019
</metadata>
<g transform="translate(0.000000,283.000000) scale(0.100000,-0.100000)"
fill="#000000" stroke="none">
<path d="M1216 2699 c-414 -60 -791 -343 -976 -732 -156 -327 -160 -735 -9
-1056 177 -379 516 -647 931 -738 117 -25 390 -25 507 1 350 76 621 253 823
536 154 217 219 426 221 710 1 178 -11 261 -59 410 -145 442 -546 782 -1020
865 -94 16 -319 18 -418 4z m449 -124 c388 -83 712 -354 861 -720 61 -149 77
-250 71 -460 -4 -140 -9 -197 -26 -259 -46 -174 -148 -355 -275 -491 l-65 -70
-1 206 c0 145 -3 208 -12 217 -18 18 -422 17 -437 -2 -8 -9 -11 -91 -9 -277
l3 -264 28 -3 27 -3 0 195 0 196 170 0 170 0 0 -148 0 -148 -27 -12 c-89 -42
-137 -71 -115 -72 47 0 18 -29 -75 -73 -194 -90 -337 -122 -548 -121 -145 1
-237 15 -362 56 -83 27 -229 100 -226 113 2 6 54 11 125 13 82 2 125 7 130 15
4 7 8 122 8 257 0 206 -2 249 -16 268 -15 21 -20 22 -218 22 -144 0 -205 -3
-214 -12 -9 -9 -12 -72 -12 -223 l-1 -210 -73 75 c-277 288 -379 690 -276
1095 27 106 114 282 188 381 68 92 188 208 284 277 137 97 340 176 508 197 99
12 327 4 415 -15z m-655 -1670 l0 -45 -165 0 -165 0 0 45 0 45 165 0 165 0 0
-45z m-52 -111 l52 -7 0 -143 0 -144 -129 0 c-117 0 -133 2 -165 23 l-35 22
-1 128 0 127 113 0 c61 0 136 -3 165 -6z"/>
<path d="M1152 2424 c-21 -15 -22 -21 -22 -189 0 -214 -7 -205 152 -205 l108
0 0 -29 c0 -28 -2 -29 -77 -41 -98 -16 -103 -18 -103 -46 l0 -23 210 1 c159 0
212 3 220 13 17 20 -12 42 -67 49 -114 16 -113 16 -113 47 l0 29 108 0 c159 0
152 -9 152 205 0 168 -1 174 -22 189 -19 14 -62 16 -273 16 -211 0 -254 -2
-273 -16z m508 -112 c0 -33 -3 -93 -6 -135 l-7 -77 -228 0 -229 0 0 135 0 135
235 0 235 0 0 -58z"/>
<path d="M893 2293 c-17 -49 -23 -58 -43 -58 -19 0 -26 9 -40 50 -12 37 -22
51 -38 53 l-21 3 19 -55 19 -56 -48 0 c-81 0 -82 -3 -79 -175 l3 -150 168 -5
c93 -3 175 -1 183 3 19 11 21 296 2 315 -7 7 -31 12 -55 12 -24 0 -43 2 -43 4
0 2 7 23 15 46 20 56 19 70 -4 70 -15 0 -24 -14 -38 -57z m67 -228 l0 -95
-121 0 -120 0 2 83 c1 45 4 88 6 95 4 8 37 12 119 12 l114 0 0 -95z"/>
<path d="M1843 2343 c-16 -6 -19 -428 -3 -438 5 -3 76 -6 157 -6 109 0 148 3
154 13 5 7 9 99 9 204 0 246 9 234 -176 233 -71 0 -135 -3 -141 -6z m196 -59
l61 -7 -2 -156 -3 -156 -102 -3 -103 -3 0 166 0 165 44 0 c23 0 71 -3 105 -6z"/>
<path d="M413 1785 c-63 -27 -64 -30 -61 -360 3 -271 5 -299 20 -309 13 -8 23
-8 38 2 25 15 360 17 360 2 0 -5 11 -10 25 -10 18 0 28 7 35 26 6 14 10 153
10 320 l0 295 -25 24 c-24 25 -27 25 -197 25 -124 -1 -182 -5 -205 -15z m357
-95 l0 -40 -180 0 c-175 0 -180 1 -180 21 0 11 5 29 10 40 10 18 23 19 180 19
l170 0 0 -40z m0 -129 c0 -26 -21 -29 -202 -31 l-158 -1 0 26 0 25 180 0 c170
0 180 -1 180 -19z m-40 -191 l0 -100 -139 0 c-82 0 -141 4 -143 10 -1 5 -2 50
0 100 l3 90 140 0 139 0 0 -100z"/>
<path d="M1336 1793 c-251 -2 -374 -7 -383 -14 -10 -9 -13 -77 -13 -336 0
-290 2 -324 16 -330 9 -3 25 -1 35 5 24 16 859 17 859 2 0 -14 33 -13 48 2 9
9 12 94 12 319 0 287 -1 308 -19 330 -23 28 8 27 -555 22z m504 -293 l0 -230
-420 0 -420 0 0 230 0 230 420 0 420 0 0 -230z"/>
<path d="M2031 1774 c-20 -26 -21 -38 -21 -326 0 -187 4 -307 10 -319 11 -20
45 -26 55 -9 9 14 345 13 345 -1 0 -6 12 -9 28 -7 l27 3 3 305 c2 232 -1 311
-10 329 -23 43 -63 51 -247 51 l-170 0 -20 -26z m383 -60 c3 -9 6 -31 6 -50
l0 -34 -172 2 -173 3 -3 48 -3 47 169 0 c146 0 171 -2 176 -16z m6 -314 l0
-170 -170 0 -170 0 0 170 0 170 170 0 170 0 0 -170z"/>
<path d="M1221 1106 c-15 -18 -4 -45 23 -51 11 -3 99 -4 195 -3 149 3 175 5
184 20 8 12 7 21 -2 32 -11 14 -42 16 -201 16 -147 0 -190 -3 -199 -14z"/>
<path d="M1212 970 c-12 -5 -27 -21 -32 -35 -13 -33 -13 -560 -1 -583 8 -15
31 -17 247 -12 l239 5 3 288 2 288 -29 30 -29 29 -189 -1 c-103 0 -198 -4
-211 -9z m289 -175 c24 -9 56 -28 71 -42 l28 -27 0 -163 0 -163 -180 0 -180 0
0 158 c0 174 4 188 63 219 71 36 130 41 198 18z"/>
<path d="M1339 746 c-95 -65 -89 -209 11 -265 126 -70 268 58 215 195 -34 90
-146 124 -226 70z m147 -60 c45 -45 47 -95 5 -137 -62 -62 -161 -19 -161 71 0
33 6 48 29 71 41 41 83 39 127 -5z"/>
<path d="M1931 798 c-54 -36 -73 -69 -73 -123 0 -54 19 -87 72 -122 40 -27 83
-29 129 -5 47 23 72 61 78 113 11 115 -116 199 -206 137z m129 -63 c52 -55 14
-145 -60 -145 -96 0 -125 128 -38 164 38 16 71 10 98 -19z"/>
</g>
</svg>
